<svg xmlns="http://www.w3.org/2000/svg" width="425" height="75" viewBox="0 0 425 75">
  <g id="flogo" transform="translate(45.008 -70.579)">
    <path id="Path_85790" data-name="Path 85790" d="M13.577,110.921a1.067,1.067,0,0,0-1.255.857,1.673,1.673,0,0,1-1.82,1.715c-.857,0-.962-.5-.962-1.422,0-1.589.146-8.679.146-10.122s0-1.736-.544-1.736a2.886,2.886,0,0,0-1.108.962,23,23,0,0,1-6.923,4.559.125.125,0,0,1-.146-.146s.648-.523,1.025-.857C5.65,101.761,9.5,97.1,9.5,96.177a.565.565,0,0,0-.648-.565H6.759a31.552,31.552,0,0,0-4.517.1H1.488a.5.5,0,0,1-.314-.209l-.648-.795a.335.335,0,0,1-.146-.251h.1l1.569.042c1.736.1,3.2.146,4.873.146H9.017a1.757,1.757,0,0,0,1.652-.565,16.208,16.208,0,0,0,1.213-2.949.607.607,0,0,0-.648-.648H9.352a30.7,30.7,0,0,0-4.476.1H4.124a.376.376,0,0,1-.356-.209L3.1,89.568a.5.5,0,0,1-.188-.251.146.146,0,0,1,.146,0l1.569.1c1.778.021,3.325.063,4.894.063h1.652a1.485,1.485,0,0,0,1.485-.774,8.366,8.366,0,0,0,.669-2.28.837.837,0,0,0-.962-.816H8.683a30.27,30.27,0,0,0-4.476.1H3.454a.418.418,0,0,1-.314-.251l-.711-.774a.439.439,0,0,1-.146-.251H2.43l1.548.1c1.736,0,3.2.146,4.873.146h3.744c1.38,0,1.485-1,1.485-2.342a3.869,3.869,0,0,0-.167-1.359.858.858,0,0,1-.146-.314.293.293,0,0,1,.314-.167,19.531,19.531,0,0,1,3.367,1.025c.711.251.795.251.795.523a1.192,1.192,0,0,1-.669.816,1.506,1.506,0,0,0-.669,1.108.837.837,0,0,0,.962.774h6.818c1.61,0,1.778,0,2.28-.607a2.468,2.468,0,0,1,1.422-1.318,10.771,10.771,0,0,1,3.346,2.342c0,.5-.711.5-1.924.5H17.676a1.464,1.464,0,0,0-1.485.857c-.188.648-.774,2.28-.774,2.384a.607.607,0,0,0,.753.648h6.086a2.845,2.845,0,0,0,1.129,0c.4-.1,1.527-1.84,1.736-1.84a8.136,8.136,0,0,1,2.907,2.447c0,.293-.314.4-1.171.4H20.5a.607.607,0,0,0-.711.523,15.581,15.581,0,0,0,1.861,2.991,1.966,1.966,0,0,0,1.61.523H26.1a2.2,2.2,0,0,0,2.259-.523,2.468,2.468,0,0,1,1.422-1.318,11.733,11.733,0,0,1,3.263,2.3c0,.5-.711.5-1.882.5h-7.09a.46.46,0,0,0-.565.418,18.446,18.446,0,0,0,8.115,5.27,11.253,11.253,0,0,1,1.882.46,1.527,1.527,0,0,1-.627.293,6.274,6.274,0,0,0-2.447,1.527,2.091,2.091,0,0,1-.46.565,20.6,20.6,0,0,1-8.533-7.424,2.091,2.091,0,0,0-1.82-1.108H13.577a1.882,1.882,0,0,0-1.736.857,15.163,15.163,0,0,0-1.318,2.2c0,.648,1.318,1.61,3.6,1.61h5.438a1.882,1.882,0,0,0,1.673-.648c.314-.46.314-.5.5-.5a6.839,6.839,0,0,1,2.7,2.28,3.786,3.786,0,0,1-.648.92,6.964,6.964,0,0,0-.146,1.778c0,1.129.146,6.274.146,7.215,0,.648,0,1.715-2.091,1.715a.753.753,0,0,1-.774-.9c0-.5,0-1.171-.816-1.171H13.577Zm-.418-9.767c-.753,0-1.025.356-1.025,2.091s.272,2.091,1.025,2.091h6.9c.711,0,1.025-.314,1.025-2.091s-.314-2.091-1.025-2.091Zm0,4.936c-.857,0-1.025.544-1.025,1.82,0,1.84.4,2.091,1.108,2.091h6.776c.774,0,1.108-.314,1.108-1.945s-.314-1.945-1.108-1.945h-6.8Zm6-11.44a.544.544,0,0,0,.669-.565c0-.209-.983-2.844-1.025-2.949a1.171,1.171,0,0,0-1.171-.669H15.961a1.652,1.652,0,0,0-1.318.565,18.445,18.445,0,0,0-1.485,3.053.523.523,0,0,0,.607.5h5.459Z" transform="translate(49.829 10.343)" fill="#333"/>
    <path id="Path_85791" data-name="Path 85791" d="M24.816,107.557a.9.9,0,0,0-1.025.753,1.589,1.589,0,0,1-1.694,1.924,1.088,1.088,0,0,1-1.255-1.318c0-.146.209-7.257.209-8.6,0-3.869,0-12.339-.272-15.936,0-.314-.209-1.82-.209-2.091s0-.293.209-.293a6.274,6.274,0,0,1,1.673.753,3.284,3.284,0,0,0,1.778.5H35.105a1.276,1.276,0,0,0,1.276-.356,1.4,1.4,0,0,1,1.025-.9,6.776,6.776,0,0,1,3.1,2.091,1.589,1.589,0,0,1-.774.92c-.46.356-.627.606-.627,2.3v7.571c0,2.091.293,11.022.293,12.862a1.778,1.778,0,0,1-1.778,1.945,1.192,1.192,0,0,1-1.129-1.359c0-.607,0-.857-.753-.857H24.816ZM35.482,94.548a.92.92,0,0,0,1.025-1.129c0-.418-.1-8.721-.167-8.888a.878.878,0,0,0-.9-.439H24.46a.8.8,0,0,0-.816.523v8.637c0,.648-.084,1.3.92,1.3Zm0,11.942a.857.857,0,0,0,1.025-.753v-8.93c0-.816,0-1.359-1.025-1.359H24.606c-.92,0-1.025.523-1.025,1.234,0,1.171.1,6.9.1,8.177s.1,1.589,1.067,1.589H35.461Z" transform="translate(71.98 11.953)" fill="#333"/>
    <path id="Path_85792" data-name="Path 85792" d="M47.4,99.021c-1.213,0-1.255.418-1.359,1.631a12.088,12.088,0,0,1-7.529,11.126,15.414,15.414,0,0,1-2.091.711.146.146,0,0,1-.146-.146,2.091,2.091,0,0,1,.669-.523,17.212,17.212,0,0,0,4.685-4.685,14.64,14.64,0,0,0,2.091-7.153.878.878,0,0,0-1.108-.962H40.52a31.552,31.552,0,0,0-4.517.1h-.753a.5.5,0,0,1-.314-.209l-.669-.816a.335.335,0,0,1-.146-.251h.1l1.569.1c1.736,0,3.242.146,4.915.146h1.924c.962,0,1.129-.356,1.129-1.38V90.885a.795.795,0,0,0-.962-.962h-.565c-.857,0-3.3,0-4.559.1h-.753a.376.376,0,0,1-.314-.209L35.9,89a.586.586,0,0,1-.146-.251H35.9c.146,0,1.882.146,2.238.146,2.447.1,2.74.1,4.727.1a.816.816,0,0,0,1-.857,38,38,0,0,0-.4-5.647c0-.209-.4-1.108-.4-1.318s.209-.314.46-.314,2.091.565,2.3.606c1,.293,1.067.293,1.067.669a10.771,10.771,0,0,1-.544,1.129,16.731,16.731,0,0,0-.209,2.238c0,3.137,0,3.388,1.255,3.388h5.647c1.025,0,1.025-.251,1.025-2.384a13.343,13.343,0,0,0-.356-4.664c0-.146-.4-.753-.4-.857a.293.293,0,0,1,.314-.293c.167,0,1.882.4,2.091.418,1.527.356,1.715.4,1.715.878a10.018,10.018,0,0,1-.565,1.422,9.621,9.621,0,0,0-.272,2.091c0,.356,0,2.531,0,2.7.1.669.627.669,1.631.669a2.593,2.593,0,0,0,1.924-.251,8.868,8.868,0,0,1,1.924-1.778,8.763,8.763,0,0,1,2.8,2.426c0,.523-.669.523-1.924.523H57.732c-.774,0-1.171.146-1.171,1.276v5.981c0,.607.167.92,1.129.92h2.426a2.489,2.489,0,0,0,2.091-.418,9.223,9.223,0,0,1,1.8-1.59A6.567,6.567,0,0,1,66.6,98.394c0,.523-.627.523-1.882.523H57.836c-1.213,0-1.213.418-1.213,2.238s0,3.974.209,7.215c0,.46.209,2.384.209,2.782a1.736,1.736,0,0,1-1.882,1.82,1.171,1.171,0,0,1-1.129-1.422c0-.293.146-1.631.146-1.924V99.837a.837.837,0,0,0-1-.92H47.4Zm5.751-.962c.92,0,1.025-.418,1.025-1.213s0-5.856-.146-6.274a.816.816,0,0,0-1.025-.711H47.359a.941.941,0,0,0-1.025.5c0,.251,0,2.426,0,3.618,0,.544,0,3.3.1,3.555a1.046,1.046,0,0,0,1.025.5h5.751Z" transform="translate(86.869 10.551)" fill="#333"/>
    <path id="Path_85793" data-name="Path 85793" d="M59.68,108.715c0-3.7-1.171-5.375-1.569-5.375a.4.4,0,0,0-.4.293,15.456,15.456,0,0,0-.5,1.485c-2.091,5.835-4.476,7.78-4.727,7.78a.126.126,0,0,1-.1-.146.774.774,0,0,1,.146-.356c.607-.878,4.455-7.634,4.455-20.161a91.583,91.583,0,0,0-.314-9.453c0-.251-.4-1.527-.4-1.673a.4.4,0,0,1,.46-.356c.209,0,2.552.607,2.949.711a.565.565,0,0,1,.5.5.439.439,0,0,1-.209.4,2.677,2.677,0,0,0-.607.753c-.146.523-.146,6.5-.146,7.571a.251.251,0,0,0,.209.293,11.879,11.879,0,0,0,2.091-3.744c.167-.711.314-.774.5-.774a5.291,5.291,0,0,1,2.091,1.966c0,.251-.1.293-.669.5l-2.489,2.091A2.886,2.886,0,0,0,59.283,92.9c0,.209-.4,5.124-.5,6.086,0,.46-.46,2.531-.46,2.886a1.485,1.485,0,0,0,.5,1.129c1.778,1.527,3.409,2.949,3.409,4.915a1.861,1.861,0,0,1-1.61,2.091C59.764,110.032,59.68,109.53,59.68,108.715ZM55.5,94.786c0,3.033-1.527,3.346-1.82,3.346a1.464,1.464,0,0,1-1.129-1.569,4.643,4.643,0,0,1,.669-2.091,8.993,8.993,0,0,0,.816-3.806,3.3,3.3,0,0,1,.146-1.025,9.411,9.411,0,0,1,1.338,5.124ZM77.645,92.13a.586.586,0,0,0-.648.565,19.366,19.366,0,0,0,7.529,9.495,9.328,9.328,0,0,1,1.736,1.108.585.585,0,0,1-.209.1,9.077,9.077,0,0,0-2.677.711,7.947,7.947,0,0,1-.962.711,7.717,7.717,0,0,1-2.447-2.8,28.547,28.547,0,0,1-3.158-7.508c-.125-.272-.125-.356-.314-.356a.335.335,0,0,0-.314.293,13.3,13.3,0,0,1-6.086,8.784,23.382,23.382,0,0,1-5.542,2.091.126.126,0,0,1-.146-.1c0-.1,0-.1.314-.251a20.224,20.224,0,0,0,6.567-4.873,12.7,12.7,0,0,0,3.053-7.257.732.732,0,0,0-.774-.774H72.312a1.213,1.213,0,0,0-1.171.962,16.4,16.4,0,0,1-9.85,10.164s1.778-1.464,2.091-1.673a12.548,12.548,0,0,0,2.7-2.886.209.209,0,0,0-.167-.251.857.857,0,0,1-.92-.816,3.576,3.576,0,0,0-1.569-2.3.46.46,0,0,0-.439.209,8.073,8.073,0,0,1-2.28,2.091h-.1s1.276-2.091,1.527-2.489a31.371,31.371,0,0,0,3.89-13.8c0-.356,0-.418.314-.418s3.242.669,3.242,1.359a2.091,2.091,0,0,1-.962.92,27.712,27.712,0,0,0-.92,3.367.565.565,0,0,0,.607.648h1.276a1.129,1.129,0,0,0,1.025-.565c.251-.565.293-.648.46-.648.565.1,2.677.774,2.677,1.422a.983.983,0,0,1-.648.753A4.434,4.434,0,0,0,71.956,90.6a.565.565,0,0,0,.565.648h1.025a.92.92,0,0,0,.857-.418,15.477,15.477,0,0,0,.314-3.953,37.166,37.166,0,0,0-.209-3.974c0-.251-.314-1.589-.314-1.924s.146-.209.314-.209,3.6.857,3.6,1.589a.5.5,0,0,1-.209.4,1.673,1.673,0,0,0-.774.878c-.167.46-.439,6-.439,6.588a.9.9,0,0,0,.92.962h1.38c1.464,0,1.631,0,2.091-.774a1.84,1.84,0,0,1,.983-.962,4.643,4.643,0,0,1,2.551,2.28c0,.418-.209.418-1.924.418H77.666ZM66.937,108.861c0,1.715-.669,4.183-2.447,4.183a1.234,1.234,0,0,1-1.255-1.38,2.886,2.886,0,0,1,1.108-2.091,3.827,3.827,0,0,0,1.359-3.2.941.941,0,0,1,.146-.774,4.5,4.5,0,0,1,1.129,3.137Zm-3.158-14.18c0,.293.167.356.565.5a3.6,3.6,0,0,1,2.384,1.924.314.314,0,0,0,.251.146,9.328,9.328,0,0,0,1.736-3.43.251.251,0,0,0-.251-.251.962.962,0,0,1-1.213-.816,2.53,2.53,0,0,0-1.213-1.589.439.439,0,0,0-.46.355,24.069,24.069,0,0,1-1.569,2.489.8.8,0,0,0-.209.544Zm4.308-6.546a1.213,1.213,0,0,0-1.213.669c-.146.356-.607,1.485-.607,1.569a.481.481,0,0,0,.5.5,3.033,3.033,0,0,1,2.091,1.276.209.209,0,0,0,.251.167c.188,0,.209-.1.251-.314a32.717,32.717,0,0,0,.795-3.242.648.648,0,0,0-.711-.648H68.108Zm2.531,23.926a.795.795,0,0,1-.92-.857,3.409,3.409,0,0,1,.314-1.213,8.783,8.783,0,0,0,.4-2.342,7.907,7.907,0,0,0-.188-1.589.962.962,0,0,1-.1-.4l.1-.1a3.367,3.367,0,0,1,1.213.92,3.932,3.932,0,0,1,1.067,3.263,2.091,2.091,0,0,1-1.861,2.2Zm5.751-.146a.92.92,0,0,1-1.067-.962c0-.293.146-1.527.146-1.778a9.1,9.1,0,0,0-.523-3.137,4.5,4.5,0,0,1-.335-.858,5.668,5.668,0,0,1,3.451,4.413,1.924,1.924,0,0,1-1.652,2.2Zm8.115-1.359a1.694,1.694,0,0,1-1.527,1.882c-1.025,0-1.213-.669-1.61-2.091a14.639,14.639,0,0,0-1.8-3.974,8.7,8.7,0,0,1-.774-1.61v-.1c.523,0,4.978,2.593,5.647,5.228a2.97,2.97,0,0,1,.084.565Zm-4.5-27.544c.565,0,3.806.92,3.806,3.012A1.589,1.589,0,0,1,82.33,87.7c-.753,0-.774-.251-1.38-2.091a9.495,9.495,0,0,0-1.108-2.238.44.44,0,0,1-.1-.167.314.314,0,0,1,.251-.188Z" transform="translate(106.917 10.6)" fill="#333"/>
    <path id="Path_85794" data-name="Path 85794" d="M80.934,93.212c-.209,0-1.067,0-1.067.607a.46.46,0,0,0,.293.356c2.091,1.067,5.542,3.618,5.542,5.542a1.38,1.38,0,0,1-1.276,1.485c-.669,0-.816-.418-1.234-1.778a10.625,10.625,0,0,0-3.2-4.685c-.188,0-.188.1-.188.774v5.94c0,1.359.146,7.885.146,9.39a1.84,1.84,0,0,1-1.715,1.882,1.025,1.025,0,0,1-.962-1.108c0-.774.272-4.622.314-5.479,0-.46.209-6.818.209-7.153a.314.314,0,0,0-.314-.4c-.188,0-.251.1-.774,1.129a29.907,29.907,0,0,1-5.04,6.9l-.1-.1a11.574,11.574,0,0,1,.607-1.129,41.681,41.681,0,0,0,4.58-11.419.774.774,0,0,0-.816-.774c-.648,0-2.593.1-3.2.146h-.5a.376.376,0,0,1-.314-.209l-.669-.816C71,92.187,71,92.187,71,92.1s0,0,.146,0l1.276.1,4.371.146A.878.878,0,0,0,77.86,91.33c0-2.091,0-5.647-.146-7.529,0-.4-.251-2.2-.251-2.593a.335.335,0,0,1,.272-.4s3.723.586,3.723,1.234a.69.69,0,0,1-.356.5,2.217,2.217,0,0,0-.774,1.464s-.314,6.964-.314,7.32c0,.962.669.962,1.255.962a2.823,2.823,0,0,0,1.464-.251A7.026,7.026,0,0,1,84.3,90.368a9.076,9.076,0,0,1,2.782,2.384c0,.46-.4.46-1.338.46h-4.81ZM74.66,90.159c-.711,0-.816-.565-1.129-2.091a12.548,12.548,0,0,0-1.715-3.848.669.669,0,0,1-.1-.293.23.23,0,0,1,.251-.209c.606,0,4.183,2.489,4.183,4.768a1.61,1.61,0,0,1-1.485,1.673Zm6.8.607v-.1c0-.1.669-1.527.816-1.82a20.914,20.914,0,0,0,1.589-5.73.272.272,0,0,1,.209-.314,8.826,8.826,0,0,1,2.844,2.091.586.586,0,0,1-.314.418,4.56,4.56,0,0,0-1.108.711A40.553,40.553,0,0,1,81.457,90.765Zm7.4,11.9c-1.527.314-3.409.753-4.371,1.025a6.273,6.273,0,0,1-.774.209.356.356,0,0,1-.272-.146l-.857-.669c-.188-.146-.188-.146-.188-.209a1.422,1.422,0,0,1,.962-.167c.251,0,2.949-.418,5.5-.962l5.542-1.171A1.3,1.3,0,0,0,95.511,99.3c0-6.546-.188-13.113-.356-15.434,0-.4-.314-2.238-.314-2.635a.293.293,0,0,1,.293-.314c.209,0,3.66.607,3.66,1.213a4.183,4.183,0,0,1-.774,1,5.4,5.4,0,0,0-.356,1.213c0,.146,0,5.689,0,6.692v8.115a.669.669,0,0,0,.669.606,1.15,1.15,0,0,0,.858-.418,6.546,6.546,0,0,1,1.255-2.091,8.366,8.366,0,0,1,3.053,1.945,1.527,1.527,0,0,1-1.234.816l-3.555.711a1.087,1.087,0,0,0-.962,1.129c0,1.485.356,8.491.356,9.244a1.84,1.84,0,0,1-1.82,1.82,1.046,1.046,0,0,1-1.025-1.171c0-.314.1-1.84.1-2.091,0-1.464.146-5.479.146-6.462s0-1.736-1.025-1.527Zm2.551-5.375c-.753,0-.857-.418-1.108-1.234A14.159,14.159,0,0,0,87.878,92.1a.962.962,0,0,1-.314-.439.188.188,0,0,1,.209-.146c.565,0,4.831,1.82,4.831,4.329a1.213,1.213,0,0,1-1.171,1.443Zm.314-8.93a1.924,1.924,0,0,1-1.339-1.318A7.822,7.822,0,0,0,88.3,84.512a.439.439,0,0,1-.209-.314c0-.1,0-.1.251-.1S92.75,84.763,92.75,87a1.192,1.192,0,0,1-1,1.38Z" transform="translate(127.357 10.668)" fill="#333"/>
    <path id="Path_85795" data-name="Path 85795" d="M97.507,91.153c-1.234,0-1.234.251-1.234,2.28,0,.711.251.9,1.715,1.422a3.681,3.681,0,0,1,2.886,2.991c0,.146,0,1.464-.92,1.464s-.774-.4-1.527-1.84a5.563,5.563,0,0,0-1.778-2.342c-.146,0-.356.146-.356.816v7.424c0,1.15.1,6.713.1,7.822a1.569,1.569,0,0,1-1.631,1.673.69.69,0,0,1-.774-.753c0-.314,0-2.844.1-3.242,0-.857.146-8.951.146-10.018a.648.648,0,0,0-.1-.46c-.1,0-3.765,7.278-4.831,7.278,0,0,1.108-2.447,1.318-2.907a54.127,54.127,0,0,0,3.346-10.666.9.9,0,0,0-1.108-.857H90.417l-.627.1a.335.335,0,0,1-.418-.272l-.565-.816a.565.565,0,0,1-.146-.209l.1-.1c.565,0,3.848.251,4.58.251s.962,0,.962-5.856c0-.523-.251-3.012-.251-3.2a.125.125,0,0,1,.1-.146,22.51,22.51,0,0,1,2.28.669c.711.167.962.293.962.648a.753.753,0,0,1-.46.607,1.088,1.088,0,0,0-.439,1.108c0,.607-.251,5.082-.251,5.5a.627.627,0,0,0,.753.669,1.046,1.046,0,0,0,1-.586c.356-.669.46-.9.753-.9a8.679,8.679,0,0,1,2.677,2.091c0,.418-.753.418-1.569.418H97.507Zm15.685,5.626c-.4,0-.9,0-.9.5a18.823,18.823,0,0,0,8.366,9.892,4.581,4.581,0,0,1,1.359.962c0,.167-.251.167-.356.167a4.622,4.622,0,0,0-1.82.4,8.365,8.365,0,0,1-1.61.962,25.222,25.222,0,0,1-5.584-8.993c-.1-.251-.5-1.464-.606-1.715a.188.188,0,0,0-.146-.146c-.146,0-.146.209-.146.4v12.151a1.213,1.213,0,0,1-.356,1.108,2.635,2.635,0,0,1-1.464.46.648.648,0,0,1-.753-.753c0-1.234.251-3.263.293-4.517,0-1.736.146-7.362.146-7.424,0-.523,0-.669-.209-.669s-.209,0-.5.523a25.745,25.745,0,0,1-8.366,9.286,5.9,5.9,0,0,1-1.276.606.188.188,0,0,1-.209-.146,7.569,7.569,0,0,1,1.276-1.4,29.677,29.677,0,0,0,7.613-11.022c0-.753-.565-.753-1.338-.753s-2.74,0-3.555.1H102.3a.376.376,0,0,1-.376-.042l-.648-.837a.5.5,0,0,1-.188-.251h.146l1.569.1c.293,0,2.844.146,4.517.146h1.108c1,0,1.255-.209,1.255-1.171s0-4.371-.1-4.936-.251-.753-1.025-.753h-3.221c-.753,0-.816,0-1.276.878a13.051,13.051,0,0,1-3.137,3.806l-.1-.1s1-2.3,1.171-2.74a30.786,30.786,0,0,0,2.091-7.215c0-.753.1-.816.356-.816a9.286,9.286,0,0,1,3.409,1.464c0,.251-.251.314-.9.523a1.8,1.8,0,0,0-.9,1.38c-.209.523-.627,1.527-.627,1.569a.376.376,0,0,0,.46.314h2.74a.878.878,0,0,0,1.025-.962c0-.418,0-2.551,0-2.844s-.356-3.033-.356-3.346a.146.146,0,0,1,.146-.146,10.1,10.1,0,0,1,3.3,1.108,7.738,7.738,0,0,1-.607.9,39.3,39.3,0,0,0-.209,4.183c0,.92.356,1.108,1.171,1.108h.857a1.8,1.8,0,0,0,1.318-.251A8.554,8.554,0,0,1,117,86.155a10.29,10.29,0,0,1,2.949,2.342c0,.5-.711.5-1.882.5h-5.019a.983.983,0,0,0-1.025.46,46.231,46.231,0,0,0-.146,4.664c0,1.318,0,1.736,1.171,1.736h1.422a2.468,2.468,0,0,0,1.882-.251,8.366,8.366,0,0,1,1.589-1.589,9.682,9.682,0,0,1,3.137,2.28c0,.5-.753.5-1.882.5H113.15Z" transform="translate(146.747 10.636)" fill="#333"/>
    <path id="Path_85796" data-name="Path 85796" d="M123.349,88.552c.607,0,.753-.1.753-.418s-.565-4.057-.669-4.622-.5-2.2-.5-2.593.146-.1.251-.1a15.459,15.459,0,0,1,2.489.4c.92.167,1.38.314,1.38.774a.774.774,0,0,1-.356.607,2.51,2.51,0,0,0-.4,2.2c0,3.765.314,3.765,1.213,3.765h4.183c1.631,0,1.82,0,2.28-.607,1.108-1.485,1.213-1.631,1.569-1.631a7.926,7.926,0,0,1,3.409,2.677c0,.523-.648.523-1.882.523h-9.537c-.607,0-.816,0-.816.565a47.222,47.222,0,0,0,1.422,6.274c2.2,6.86,6.086,11.335,7.153,11.335a3.471,3.471,0,0,0,1.569-1.882,9.973,9.973,0,0,1,1.025-1.882c.1,0,.1.167.1.251s-.46,3.953-.46,4.685a2.677,2.677,0,0,0,.4,1.464,1.924,1.924,0,0,1,.356,1,.816.816,0,0,1-.92.878c-3.137,0-10.457-7.571-12.841-21.186-.209-1.318-.272-1.527-1.171-1.527H109.274l-.774.1a.46.46,0,0,1-.293-.251l-.711-.816a.293.293,0,0,1-.146-.209s0-.1.146-.1,1.359.1,1.569.146c1.631,0,3.2.1,4.873.1h9.411ZM118.56,97.9a.92.92,0,0,0-.983.607c0,.356-.209,4.183-.209,6.274s0,2.531.606,2.531,8.575-1.82,8.637-1.82.188,0,.188.1a46.01,46.01,0,0,1-9.537,3.869,44.611,44.611,0,0,0-6.462,2.2,9.77,9.77,0,0,1-1.171,1,13.908,13.908,0,0,1-1.38-3.848c0-.146.1-.167,1.213-.293a44.837,44.837,0,0,0,4.915-.711.711.711,0,0,0,.314-.5V98.779a.837.837,0,0,0-1.025-.857,27.837,27.837,0,0,0-3.242.1h-.5a.439.439,0,0,1-.314-.251l-.669-.816a.376.376,0,0,1-.23-.167.146.146,0,0,1,.146,0c.251,0,1.359.1,1.569.146,1.631,0,3.242.1,4.873.1h2.8a5.772,5.772,0,0,0,1.715-.1,23.568,23.568,0,0,1,1.82-1.882,6.274,6.274,0,0,1,2.593,2.447c0,.46-.711.46-1.924.46H118.56ZM129.184,81.17c.5,0,5.4,1.213,5.4,3.263a1.318,1.318,0,0,1-1.464,1.464c-.4,0-.46-.1-1.213-1.171a17.923,17.923,0,0,0-2.74-3.158.376.376,0,0,1-.209-.293.209.209,0,0,1,.272-.084Z" transform="translate(167.261 10.565)" fill="#333"/>
    <path id="Path_85797" data-name="Path 85797" d="M124.37,96.615a.836.836,0,0,1,.544-.5c.251-.167,3.158-2.238,5.479-4.183,6.086-5.187,8.366-9.411,8.491-10.206.293-1.108.293-1.234.711-1.234a10.1,10.1,0,0,1,3.346,2.091c0,.167,0,.209-.418.46a.356.356,0,0,0-.251.356c0,1.108,6.274,8.993,14.64,11.377,1,.293,1,.293,1,.46s-.1.251-1,.523a4.183,4.183,0,0,0-2.28,1.464.5.5,0,0,1-.46.356c-.774,0-8.366-5.229-12.381-12.548-.4-.753-.46-.857-.606-.857a5,5,0,0,0-1,1.067A35.24,35.24,0,0,1,124.6,96.656.117.117,0,0,1,124.37,96.615Zm9.683,4.873a42.9,42.9,0,0,0-4.476.1h-.753a.439.439,0,0,1-.314-.209l-.669-.816a1.751,1.751,0,0,1-.063-.188h1.673c1.736,0,3.618.146,4.873.146h11.733a2.468,2.468,0,0,0,2.74-1.171,1.506,1.506,0,0,1,1-.962,1.945,1.945,0,0,1,1.213.753c1.819,1.485,1.819,1.527,1.819,1.84s-.188.46-1.84.46H140.118c-.356,0-.5,0-.5.1a7.611,7.611,0,0,1,1.673,1.82c0,.314,0,.314-1.067.607a3.45,3.45,0,0,0-1.255,1.38c-.753,1-2.2,2.74-2.405,2.949a1.694,1.694,0,0,0-.5.857c0,.314.5.356.627.356.46,0,3.806-.209,7.759-.607,2.551-.251,2.844-.293,2.844-.648s-2.091-2.342-2.091-2.782a.209.209,0,0,1,.251-.209,33.146,33.146,0,0,1,4.517,2.2,5.291,5.291,0,0,1,3.158,4.183,1.736,1.736,0,0,1-1.38,1.924,3.806,3.806,0,0,1-2.426-2.489c-.669-1.213-1-1.318-1.485-1.318a155.218,155.218,0,0,0-16.543,3.158,7.593,7.593,0,0,1-1.025.565.4.4,0,0,1-.356-.251,28.113,28.113,0,0,1-1.966-3.764.23.23,0,0,1,.293-.251c.251,0,1.338.209,1.569.251a18.631,18.631,0,0,0,2.091.146c2.091,0,2.238,0,3.7-2.907a24.852,24.852,0,0,0,1.84-4.685c0-.606-.46-.606-1.067-.606h-2.321Zm7.4-6.609a2.238,2.238,0,0,0,2.531-.92,4.413,4.413,0,0,1,1.171-1.213,9.662,9.662,0,0,1,2.7,2.656c0,.4-.167.4-1.882.4H137.8c-2.091,0-3.2,0-4.517.1h-.753a.5.5,0,0,1-.314-.209l-.669-.816a.293.293,0,0,1-.146-.251h.1l1.569.1c1.736.1,3.451.146,4.873.146Z" transform="translate(186.062 10.323)" fill="#333"/>
    <path id="Path_85798" data-name="Path 85798" d="M142.447,89.042a.753.753,0,0,1-.188-.251h.146c.669,0,3.953.209,4.685.209s.983-.251.983-2.635c0-.523,0-2.635-.146-3.974,0-.167-.188-1-.188-1.213s.1,0,.146,0a26.934,26.934,0,0,1,3.2.962.628.628,0,0,1,.4.5,7.664,7.664,0,0,1-.711.816,3.89,3.89,0,0,0-.188,2.091V88.54a.46.46,0,0,0,.565.565,1.255,1.255,0,0,0,.857-.251,8.638,8.638,0,0,1,1.61-1.213.669.669,0,0,1,.5.251c.418.418,1.171,1.318,1.276,1.38a1.757,1.757,0,0,1,.857,1.025.523.523,0,0,1-.4.46l-.711.188a40.348,40.348,0,0,0-3.3,3.555,2.28,2.28,0,0,0-1.129,1.82c0,.753.314.816,1.171,1,1.213.293,4.559,1.234,4.559,3.953a1.4,1.4,0,0,1-1.255,1.631c-.857,0-1.255-.711-2.091-2.593a5.124,5.124,0,0,0-2.091-2.2c-.314,0-.314.5-.314.92v9.39c0,.46.167,2.656.167,3.158a1.694,1.694,0,0,1-1.882,1.631c-.857,0-1.067-.356-1.067-.857s.146-2.091.146-2.384c0-2.635.209-6.274.209-10.457,0-.4,0-1-.356-1s-4.957,3.639-5.9,3.639c0,0-.167,0-.167-.1a35.723,35.723,0,0,1,3.1-3.158c1.422-1.464,6.441-7.675,6.441-8.721,0-.314-.251-.356-.565-.356h-2.489c-1.38,0-2.886,0-4.183.1h-.753a.377.377,0,0,1-.314-.209Zm11.628,21.75a.4.4,0,0,1-.146-.209.1.1,0,0,1,.1-.1c.209,0,1.318.146,1.569.146,1.025,0,2.886.1,4.873.1h1.38a.857.857,0,0,0,1.025-.774c0-.648.146-14.326.146-16.166a.878.878,0,0,0-.857-1.108c-.9,0-2.949,0-4.183.1h-.753a.5.5,0,0,1-.314-.209l-.669-.816a.335.335,0,0,1-.146-.251h.1l1.485.188c.356,0,3.242.146,4.455.146.857,0,.92-.46.92-1.464a69.6,69.6,0,0,0-.251-7.529c0-.293-.209-1.527-.209-1.82s0-.251.293-.251a24.09,24.09,0,0,1,2.551.753,1.213,1.213,0,0,1,1.067.9,9,9,0,0,1-.774.962c-.209.5-.314,6.4-.314,7.362a.857.857,0,0,0,.858,1.108,2.259,2.259,0,0,0,2.593-1c1.025-1.38,1.129-1.527,1.464-1.527a7.32,7.32,0,0,1,2.991,2.991c0,.46-.753.46-1.882.46h-4.936c-.962,0-1.025.523-1.025,1.171,0,2.091.1,12.548.1,14.933,0,1.318,0,1.945.92,1.945h1.318a2.2,2.2,0,0,0,2.091-1.067c.962-1.234,1.067-1.38,1.485-1.38a10.31,10.31,0,0,1,3.451,2.907c0,.5-.753.5-1.924.5H155.915l-.753.1a.46.46,0,0,1-.314-.251Z" transform="translate(205.129 10.631)" fill="#333"/>
    <path id="Path_85799" data-name="Path 85799" d="M86.3,1c20.966-.381,38.283,16.061,38.7,36.744S108.787,75.539,87.823,75.986,49.488,60.045,49,39.364a37.224,37.224,0,0,1,10.57-26.828A38.254,38.254,0,0,1,86.3,1Zm34.666,37.5A33.948,33.948,0,0,0,53.083,38.3,33.709,33.709,0,0,0,86.684,72a34.174,34.174,0,0,0,24.232-9.689A33.25,33.25,0,0,0,120.969,38.5Z" transform="translate(-94 69.584)" fill="#333"/>
    <path id="Path_85800" data-name="Path 85800" d="M81.469,31.1a4.384,4.384,0,0,0,0,3.383,6.741,6.741,0,0,1-3.662.621l-.672,2.534,2.534.722A6.7,6.7,0,0,1,82.039,35.5a4.4,4.4,0,0,0,2.889,1.634c-.089,1.546-.253,3.054-.241,4.574a50.081,50.081,0,0,0,.329,5.157,11.112,11.112,0,0,1-3.168,9.389,10.732,10.732,0,0,1-9.11,3.256,11.175,11.175,0,0,1-9.769-13.545v-.076c-.735-.329-1.482-.6-2.167-.988a10.808,10.808,0,0,1-5.689-8.2,11.2,11.2,0,0,1,17.89-10.516,39.012,39.012,0,0,0,6.639,4.181C80.24,30.583,80.848,30.836,81.469,31.1Z" transform="translate(-92.397 74.673)" fill="#333"/>
    <path id="Path_85801" data-name="Path 85801" d="M86.463,34.569a4.422,4.422,0,0,0-2.863-1.71,6.627,6.627,0,0,1,1.267-3.4l-1.888-1.926L81.154,29.4a6.677,6.677,0,0,1,1.267,3.408,4.409,4.409,0,0,0-2.927,1.761c-.7-.507-1.343-1-2.027-1.457a44.662,44.662,0,0,0-6.652-3.51,10.985,10.985,0,0,1-6.551-8.337A11.188,11.188,0,0,1,73.134,8.379,11.036,11.036,0,0,1,82.7,10.913l.279.215h0c.8-.545,1.52-1.128,2.306-1.571A11.191,11.191,0,0,1,95.446,29.5c-1.951.925-3.89,1.888-5.79,2.927A26.519,26.519,0,0,0,86.463,34.569Z" transform="translate(-89.966 71.494)" fill="#333"/>
    <path id="Path_85802" data-name="Path 85802" d="M101.388,45.82c.089.722.2,1.394.228,2.078A10.77,10.77,0,0,1,99.6,54.854,10.909,10.909,0,0,1,91.67,59.5a11.188,11.188,0,0,1-12.24-9.11,14.837,14.837,0,0,1,0-4.105,34.007,34.007,0,0,0,0-8.743v-.405a4.435,4.435,0,0,0,2.952-1.647,6.639,6.639,0,0,1,2.369,2.863l2.534-.71-.659-2.534a6.829,6.829,0,0,1-3.662-.608,4.447,4.447,0,0,0,0-3.383c.735-.329,1.444-.621,2.141-.963a41.6,41.6,0,0,0,6.5-4.08,11,11,0,0,1,6.6-2.179,11.2,11.2,0,0,1,3.522,21.818Z" transform="translate(-85.91 74.679)" fill="#333"/>
    <path id="Path_85803" data-name="Path 85803" d="M76.161,31.9a3.624,3.624,0,1,1,1.186,2.512A3.611,3.611,0,0,1,76.161,31.9Z" transform="translate(-86.746 76.321)" fill="#333"/>
  </g>
</svg>
