<svg xmlns="http://www.w3.org/2000/svg" width="37.513" height="36.219" viewBox="0 0 37.513 36.219">
  <g id="Group_10872" data-name="Group 10872" transform="translate(0)">
    <g id="Group_10874" data-name="Group 10874" transform="translate(0 0)">
      <g id="Group_10872-2" data-name="Group 10872" transform="translate(0)">
        <path id="Path_46202" data-name="Path 46202" d="M890.791,513.769c0-8.5-8.414-15.424-18.756-15.424s-18.756,6.919-18.756,15.424c0,7.625,6.673,14.01,15.686,15.217.611.134,1.442.408,1.652.937a3.956,3.956,0,0,1,.061,1.718s-.22,1.341-.268,1.627c-.082.48-.377,1.879,1.625,1.024s10.8-6.445,14.737-11.034h0C889.489,520.238,890.791,517.173,890.791,513.769Z" transform="translate(-853.279 -498.345)" fill="#fff"/>
      </g>
      <g id="Group_10873" data-name="Group 10873" transform="translate(6.099 11.348)">
        <path id="Path_46203" data-name="Path 46203" d="M1004.8,570.794h-5.291a.36.36,0,0,1-.36-.359v-.006h0v-8.205h0v-.008a.36.36,0,0,1,.36-.36h5.291a.361.361,0,0,1,.36.36v1.336a.36.36,0,0,1-.36.36h-3.6V565.3h3.6a.361.361,0,0,1,.36.36v1.336a.36.36,0,0,1-.36.36h-3.6v1.387h3.6a.361.361,0,0,1,.36.36v1.336A.36.36,0,0,1,1004.8,570.794Z" transform="translate(-979.579 -561.855)" fill="#06c755"/>
        <path id="Path_46204" data-name="Path 46204" d="M893.929,570.794a.359.359,0,0,0,.36-.359V569.1a.361.361,0,0,0-.36-.36h-3.6v-6.524a.361.361,0,0,0-.359-.36h-1.336a.36.36,0,0,0-.36.36v8.213h0v.006a.36.36,0,0,0,.36.359h5.292Z" transform="translate(-888.278 -561.855)" fill="#06c755"/>
        <rect id="Rectangle_23486" data-name="Rectangle 23486" width="2.055" height="8.939" rx="1.027" transform="translate(7.141)" fill="#06c755"/>
        <path id="Path_46205" data-name="Path 46205" d="M955.1,561.855h-1.336a.36.36,0,0,0-.36.36V567.1l-3.761-5.079a.348.348,0,0,0-.029-.037l0,0-.022-.022-.007-.006-.02-.016-.01-.007-.019-.013-.011-.007-.02-.011-.011-.005-.021-.009-.012,0-.022-.007-.013,0-.021,0-.015,0-.019,0h-1.36a.36.36,0,0,0-.36.36v8.22a.36.36,0,0,0,.36.359h1.336a.36.36,0,0,0,.36-.359v-4.881l3.766,5.085a.368.368,0,0,0,.093.091l0,0,.023.014.01.006.018.009.018.008.011,0,.025.008h.005a.364.364,0,0,0,.094.013H955.1a.36.36,0,0,0,.36-.359v-8.22A.36.36,0,0,0,955.1,561.855Z" transform="translate(-937.165 -561.855)" fill="#06c755"/>
      </g>
    </g>
  </g>
</svg>
