<svg id="Group_1937" data-name="Group 1937" xmlns="http://www.w3.org/2000/svg" width="16.5" height="23.531" viewBox="0 0 16.5 23.531">
  <path id="Path_85779" data-name="Path 85779" d="M1856.1,149.329l-6.1,7.215,1.073,1.4.646,1.085a8.332,8.332,0,0,1,.878,2.067l.325,1.189a.8.8,0,0,0,1.38,0l.321-.886a16.961,16.961,0,0,1,3.383-5.617l.561-.744,1.607-2.275a11.038,11.038,0,0,0,1.687-5.369c0-.015,0-.029,0-.044a8.21,8.21,0,0,0-.923-3.752l-4.843,5.732Z" transform="translate(-1845.371 -139.143)" fill="#34a853"/>
  <path id="Path_85780" data-name="Path 85780" d="M1828.686,163.956l-6.1,7.215-2.889-3.763c-.282-.488-.594-1.062-.867-1.647l4.675-5.533a3.2,3.2,0,0,0,5.171,3.725Z" transform="translate(-1817.953 -153.771)" fill="#fbbc04"/>
  <path id="Path_85781" data-name="Path 85781" d="M1817.384,133.38l-.318.376-4.675,5.533c-.118-.253-.229-.508-.326-.759a8.2,8.2,0,0,1-.556-2.981c0-.015,0-.029,0-.044a8.214,8.214,0,0,1,2.028-5.374l3.817,3.224Z" transform="translate(-1811.509 -127.299)" fill="#ea4335"/>
  <path id="Path_85782" data-name="Path 85782" d="M1872.417,113.778l-4.843,5.732,0,0a3.2,3.2,0,0,0-4.52-4.5l4.491-5.316A8.269,8.269,0,0,1,1872.417,113.778Z" transform="translate(-1856.841 -109.324)" fill="#4285f4"/>
  <path id="Path_85783" data-name="Path 85783" d="M1837.022,106.991l-4.492,5.316-.333.395-.03-.025-3.817-3.224a8.26,8.26,0,0,1,8.671-2.462Z" transform="translate(-1826.322 -106.621)" fill="#1a73e8"/>
</svg>
