<svg xmlns="http://www.w3.org/2000/svg" width="43.169" height="22.608" viewBox="0 0 43.169 22.608">
  <path id="Intersection_1" data-name="Intersection 1" d="M1744.627,29.5a7.49,7.49,0,0,0,2.4-1.688c-.039-.094-.074-.181-.1-.242.14-.17,1.608-1.7,1.715-1.839l.13.1c-.114-.123.06-.327.2-.3l-.023-.056c.136-.165.534-.634.655-.783l-.013-.014c-.009-.01-.017-.019.014-.074a15.23,15.23,0,0,1,.955-1.211c.6-.723,1.394-1.672,2.166-2.59,1.167-1.388,2.269-2.7,2.593-3.128l-.2-.424a3.607,3.607,0,0,1-.408-.979c.09-.379,1.045-2.559,1.194-2.817l.009-.014a24.6,24.6,0,0,1,3.452-1.894c1.625-.763,3.768-1.607,4.748-1.294a3.751,3.751,0,0,1,1.8,1.265l.421.438a4.474,4.474,0,0,1,3.237-.034,1.278,1.278,0,0,1,.432.347,4.393,4.393,0,0,1,1.94-.169l.051.133a7.2,7.2,0,0,1,3.458-.247c3.515.769,8.755,1.856,11.074,2.382l-.754,5.327c-11.208-2.058-13.954-2.385-14.493-2.192v.392l-.137.08c-.122.079-.755.419-.984.519-.445.2-.521.175-.587.851-.134,1.383-2.064,2.324-3.168,3.184,0,0-.007,0-.011,0v1c-1.736,2.991-3.047,3.839-6.4,5.881a5.5,5.5,0,0,1-2.9.952,6.8,6.8,0,0,1-2.45-1.191,12.5,12.5,0,0,1-2.84-2.5.274.274,0,0,0-.024-.021c-.254.291-.41.471-.656.754l-.066-.026c0,.134-.192.3-.321.2l.1.1c-.262.3-1.488,1.543-1.738,1.831l-.243-.093a13.806,13.806,0,0,1-3.058,2.216Zm13.476-9.6-1.445,1.679c-1.336,1.55-1.116,1.7-2.48,3.366.124.9,2.453,2.489,3.085,2.6.284-.113,6.236-1.879,5.987-5.812a4.289,4.289,0,0,0-.618-1.805l-.378-.247a4.893,4.893,0,0,0-2.17-1.031h-.062C1759.428,18.651,1758.849,19.028,1758.1,19.9Z" transform="translate(-1743.915 -9.678)" fill="#fff" stroke="rgba(0,0,0,0)" stroke-miterlimit="10" stroke-width="1"/>
</svg>
