<svg xmlns="http://www.w3.org/2000/svg" width="140" height="109" viewBox="0 0 140 109">
  <g id="Group_11695" data-name="Group 11695" transform="translate(-100 -20)">
    <g id="Group_10868" data-name="Group 10868" transform="translate(100 20)">
      <g id="Group_10861" data-name="Group 10861" transform="translate(0 0)">
        <g id="Group_10864" data-name="Group 10864" transform="translate(10.046)">
          <path id="Path_46174" data-name="Path 46174" d="M858.152,508.005c0,35.233-26.842,55.174-59.954,55.174s-59.953-19.94-59.953-55.174,26.842-26.338,59.953-26.338,59.954-8.9,59.954,26.338" transform="translate(-738.245 -480.666)" fill="#e85400"/>
          <g id="Group_10863" data-name="Group 10863" transform="translate(10.381 29.176)">
            <g id="Group_10861-2" data-name="Group 10861">
              <path id="Path_46175" data-name="Path 46175" d="M770.112,525.11a40.172,40.172,0,0,1,.241-4.236,4.1,4.1,0,0,0-3.059-2.215l-.024,0a2.973,2.973,0,0,0-.452-.035h-.008a1.467,1.467,0,0,0-.494.041,4.323,4.323,0,0,0-3.328,3.99c-.229,2.423,1.3,4.5,3.428,4.5a3.276,3.276,0,0,0,2.243-.9,2.705,2.705,0,0,0,2.156.9v-.967c-.364,0-.713-.414-.7-1.078m-3.7.4a1.7,1.7,0,0,1-1.313-.628,2.791,2.791,0,0,1-.577-2.064,2.633,2.633,0,0,1,2.293-2.55,2.162,2.162,0,0,1,1.9,2.386,2.662,2.662,0,0,1-2.306,2.856" transform="translate(-753.315 -515.07)" fill="#fff"/>
              <path id="Path_46176" data-name="Path 46176" d="M779.612,522.461a7.483,7.483,0,0,0-1.232-.295,7.488,7.488,0,0,1-1.119-.259,1.075,1.075,0,0,1-.74-.59.728.728,0,0,1,0-.383c.247-.992,1.5-.8,2.185-.712a9.859,9.859,0,0,1,2.264.632l-.005-1.417a4.389,4.389,0,0,0-1.984-.761,4.881,4.881,0,0,0-2.565.226,2.672,2.672,0,0,0-1.488,1.835,2.349,2.349,0,0,0,.259,1.653,3.763,3.763,0,0,0,2.838,1.458,2.9,2.9,0,0,1,1.492.523.7.7,0,0,1,.106.941,1.741,1.741,0,0,1-1.012.523,3.882,3.882,0,0,1-1.086.079,4.5,4.5,0,0,1-1.07-.194,8.04,8.04,0,0,1-1.608-.774v1.438a3.874,3.874,0,0,0,2.3.99,4.613,4.613,0,0,0,.57.07,3.964,3.964,0,0,0,2.77-.806,2.442,2.442,0,0,0,.874-2.106,2.516,2.516,0,0,0-1.754-2.071" transform="translate(-755.57 -515.069)" fill="#fff"/>
              <path id="Path_46177" data-name="Path 46177" d="M791.884,525.145a27.48,27.48,0,0,1,.091-3.119c.126-1.871.271-3.156.271-3.156h-1.794c.048,1.644-.073,3.407-.141,4.731a2.009,2.009,0,0,1-1.875,1.969,1.9,1.9,0,0,1-1.784-1.956,33.172,33.172,0,0,1,.181-4.745h-1.51c-.057.677-.218,2.784-.218,4.745a3.488,3.488,0,0,0,3.331,3.6,3.189,3.189,0,0,0,2.089-.763,2.851,2.851,0,0,0,2.024.736v-.967c-.364,0-.637-.415-.666-1.078" transform="translate(-757.515 -515.104)" fill="#fff"/>
              <path id="Path_46178" data-name="Path 46178" d="M803.254,525.11a28.952,28.952,0,0,1,.241-4.236,4.093,4.093,0,0,0-3.059-2.215l-.023,0a2.98,2.98,0,0,0-.453-.036h-.008a1.47,1.47,0,0,0-.494.041,4.324,4.324,0,0,0-3.328,3.99c-.228,2.423,1.3,4.5,3.428,4.5a3.315,3.315,0,0,0,2.409-1.067,10.9,10.9,0,0,1,.022,1.524c-.643.1-1.368.192-2.079.36-2.289.54-3.22,2.046-3.22,3.472,0,1.847,2.1,3.34,4.448,1.6a5.063,5.063,0,0,0,2.159-3.973c.794-.038,1.334-.015,1.334-.015v-1.682s-.511,0-1.289.069c-.009-.872-.078-1.623-.087-2.333m-3.7.4a1.7,1.7,0,0,1-1.312-.628,2.787,2.787,0,0,1-.577-2.064,2.632,2.632,0,0,1,2.292-2.55,2.162,2.162,0,0,1,1.9,2.386,2.662,2.662,0,0,1-2.307,2.856m.333,6.311c-1.377.642-2.162.063-2.237-.491-.126-.922.489-1.566,2.294-1.942a8.118,8.118,0,0,1,1.885-.221,3.427,3.427,0,0,1-1.942,2.654" transform="translate(-759.602 -515.07)" fill="#fff"/>
              <path id="Path_46179" data-name="Path 46179" d="M760.459,514.5h-2.048a8.739,8.739,0,0,1-4.75,5.576l.164-5.576h-2.753l-.015.942h.367c.106,0,.794.016.746.944l-.323,10.2h1.625l.145-4.838,4.523,4.838H760.3l-5.287-5.728a10.729,10.729,0,0,0,5.45-6.356" transform="translate(-751.056 -514.503)" fill="#fff"/>
              <path id="Path_46180" data-name="Path 46180" d="M820.784,523.964a12.36,12.36,0,0,1-.163-4.008h-1.635a9.765,9.765,0,0,1-.924,4.45,2.024,2.024,0,0,1-2.6,1.311,1.139,1.139,0,0,1-.662-1.18,34.746,34.746,0,0,1,.241-3.974,4.1,4.1,0,0,0-3.059-2.215l-.023,0a3.024,3.024,0,0,0-.452-.034H811.5a1.477,1.477,0,0,0-.494.04,4.323,4.323,0,0,0-3.328,3.991c-.228,2.424,1.3,4.5,3.428,4.5a3.276,3.276,0,0,0,2.243-.9,2.705,2.705,0,0,0,2.155.9c3.391,0,3.761-3.972,3.761-3.972-.56,5.089,4.438,4.209,6.259,2.413v-1.244c-1.919,1.253-4.111,1.651-4.739-.077m-.939-5.165a1.217,1.217,0,1,0-1.141-1.215,1.18,1.18,0,0,0,1.141,1.215m-8.74,6.4a1.7,1.7,0,0,1-1.313-.628,2.788,2.788,0,0,1-.577-2.064,2.632,2.632,0,0,1,2.292-2.55,2.163,2.163,0,0,1,1.9,2.386A2.662,2.662,0,0,1,811.1,525.2" transform="translate(-761.792 -514.76)" fill="#fff"/>
            </g>
            <g id="Group_10862" data-name="Group 10862" transform="translate(67.833 2.343)">
              <path id="Path_46181" data-name="Path 46181" d="M840.834,518.692v1.462a3.115,3.115,0,0,0-2.082-.895,2.576,2.576,0,0,0-2,.906,3.163,3.163,0,0,0-.817,2.2,3.085,3.085,0,0,0,.817,2.173,2.619,2.619,0,0,0,2,.885,2.326,2.326,0,0,0,1.04-.212,2.991,2.991,0,0,0,.5-.287,5.667,5.667,0,0,0,.541-.434v1.489a4,4,0,0,1-2.092.6,3.746,3.746,0,0,1-2.815-1.224,4.2,4.2,0,0,1-1.159-2.979,4.364,4.364,0,0,1,.971-2.788,3.829,3.829,0,0,1,5.1-.9Z" transform="translate(-834.768 -517.34)" fill="#fff"/>
              <path id="Path_46182" data-name="Path 46182" d="M847.219,521.757h1.126v5.163h-1.126v-.541a2.066,2.066,0,0,1-3.153-.085,2.989,2.989,0,0,1-.653-1.971,2.9,2.9,0,0,1,.653-1.935,2.05,2.05,0,0,1,1.633-.774,2.009,2.009,0,0,1,1.519.743Zm-2.66,2.566a1.875,1.875,0,0,0,.374,1.208,1.2,1.2,0,0,0,.967.471,1.254,1.254,0,0,0,1.006-.455,2.064,2.064,0,0,0,0-2.4,1.24,1.24,0,0,0-1-.461,1.209,1.209,0,0,0-.966.467A1.789,1.789,0,0,0,844.559,524.323Z" transform="translate(-836.408 -517.825)" fill="#fff"/>
              <path id="Path_46183" data-name="Path 46183" d="M851.144,521.757h1.121v.461a2.139,2.139,0,0,1,.547-.471,1.194,1.194,0,0,1,.578-.134,1.736,1.736,0,0,1,.926.308l-.513,1.092a1.035,1.035,0,0,0-.623-.243q-.915,0-.916,1.473v2.677h-1.121Z" transform="translate(-837.874 -517.825)" fill="#fff"/>
              <path id="Path_46184" data-name="Path 46184" d="M857.176,518.277V525.3h2.262v1.161h-3.422v-8.184Z" transform="translate(-838.798 -517.365)" fill="#fff"/>
              <path id="Path_46185" data-name="Path 46185" d="M861.024,519.168a.768.768,0,0,1,.213-.541.7.7,0,0,1,1.032,0,.756.756,0,0,1,.214.546.774.774,0,0,1-.214.552.669.669,0,0,1-.513.228.687.687,0,0,1-.519-.228A.787.787,0,0,1,861.024,519.168Zm1.289,2.146v5.163h-1.12v-5.163Z" transform="translate(-839.749 -517.382)" fill="#fff"/>
              <path id="Path_46186" data-name="Path 46186" d="M865.341,522.265v4.05h-1.125v-4.05h-.4v-1.113h.4V519.16a2.273,2.273,0,0,1,.318-1.379,1.521,1.521,0,0,1,1.275-.561,2.068,2.068,0,0,1,.751.185v1.219l-.113-.065a1.352,1.352,0,0,0-.6-.195.4.4,0,0,0-.4.228,2.3,2.3,0,0,0-.105.859v1.7h1.22v1.113Z" transform="translate(-840.278 -517.22)" fill="#fff"/>
              <path id="Path_46187" data-name="Path 46187" d="M872.268,524.62h-3.477a1.618,1.618,0,0,0,.388,1.011,1.147,1.147,0,0,0,.882.371,1.1,1.1,0,0,0,.693-.212,2.982,2.982,0,0,0,.613-.784l.946.561a3.948,3.948,0,0,1-.463.681,2.51,2.51,0,0,1-.523.466,2.083,2.083,0,0,1-.6.268,2.784,2.784,0,0,1-.7.084,2.214,2.214,0,0,1-1.743-.742,2.893,2.893,0,0,1-.658-1.982,2.98,2.98,0,0,1,.638-1.982,2.137,2.137,0,0,1,1.7-.747,2.114,2.114,0,0,1,1.693.727,2.973,2.973,0,0,1,.617,2Zm-1.151-.975a1.146,1.146,0,0,0-1.514-.888,1.073,1.073,0,0,0-.327.191,1.2,1.2,0,0,0-.251.3,1.454,1.454,0,0,0-.16.4Z" transform="translate(-841 -517.825)" fill="#fff"/>
            </g>
          </g>
        </g>
        <g id="Group_10867" data-name="Group 10867" transform="translate(0 82.513)">
          <g id="Group_10865" data-name="Group 10865">
            <path id="Path_46188" data-name="Path 46188" d="M752.771,623.866a56.861,56.861,0,0,1,.34-5.986,5.787,5.787,0,0,0-4.322-3.129l-.032,0a4.2,4.2,0,0,0-.639-.05h-.011a2.087,2.087,0,0,0-.7.059,6.107,6.107,0,0,0-4.7,5.638c-.323,3.424,1.837,6.361,4.843,6.361a4.626,4.626,0,0,0,3.169-1.278c.933,1.373,3.045,1.278,3.045,1.278v-1.365c-.514,0-1.008-.585-.991-1.524m-5.223.564a2.393,2.393,0,0,1-1.854-.887,3.929,3.929,0,0,1-.815-2.916c.187-1.988,1.639-3.6,3.238-3.6,1.508,0,2.689,1.481,2.689,3.372,0,2.188-1.492,4.035-3.258,4.035" transform="translate(-729.039 -609.68)" fill="#e85400"/>
            <path id="Path_46189" data-name="Path 46189" d="M766.194,620.123a10.616,10.616,0,0,0-1.74-.417,10.265,10.265,0,0,1-1.581-.366,1.51,1.51,0,0,1-1.045-.834,1.03,1.03,0,0,1,0-.541c.35-1.4,2.118-1.131,3.088-1.007a13.929,13.929,0,0,1,3.2.893l-.007-2a6.2,6.2,0,0,0-2.8-1.074,6.876,6.876,0,0,0-3.625.318,3.776,3.776,0,0,0-2.1,2.593,3.31,3.31,0,0,0,.365,2.336c.881,1.492,2.616,1.806,4.01,2.06a4.09,4.09,0,0,1,2.11.739.99.99,0,0,1,.148,1.328,2.453,2.453,0,0,1-1.429.739,5.459,5.459,0,0,1-1.534.112,6.33,6.33,0,0,1-1.512-.274,11.323,11.323,0,0,1-2.271-1.094v2.033a5.47,5.47,0,0,0,3.251,1.4,6.722,6.722,0,0,0,.805.1,5.605,5.605,0,0,0,3.914-1.139,3.447,3.447,0,0,0,1.236-2.976,3.554,3.554,0,0,0-2.48-2.926" transform="translate(-732.224 -609.678)" fill="#e85400"/>
            <path id="Path_46190" data-name="Path 46190" d="M783.533,623.914a38.988,38.988,0,0,1,.129-4.407c.177-2.643.383-4.459.382-4.459h-2.534c.068,2.325-.1,4.814-.2,6.685a2.841,2.841,0,0,1-2.651,2.783,2.691,2.691,0,0,1-2.521-2.763,47.3,47.3,0,0,1,.256-6.7h-2.133c-.08.957-.308,3.935-.308,6.706a4.929,4.929,0,0,0,4.705,5.087,4.516,4.516,0,0,0,2.952-1.078,4.025,4.025,0,0,0,2.859,1.04v-1.366c-.514,0-.9-.585-.941-1.523" transform="translate(-734.973 -609.729)" fill="#e85400"/>
            <path id="Path_46191" data-name="Path 46191" d="M799.6,623.867a40.75,40.75,0,0,1,.34-5.985,5.786,5.786,0,0,0-4.322-3.13l-.032,0a4.221,4.221,0,0,0-.639-.05h-.011a2.071,2.071,0,0,0-.7.058,6.109,6.109,0,0,0-4.7,5.638c-.323,3.423,1.837,6.361,4.843,6.361a4.682,4.682,0,0,0,3.4-1.508,15.291,15.291,0,0,1,.03,2.153c-.907.145-1.933.272-2.937.509-3.234.764-4.551,2.89-4.551,4.906,0,2.61,2.964,4.721,6.285,2.26a7.15,7.15,0,0,0,3.05-5.613c1.122-.054,1.885-.021,1.885-.021v-2.375s-.722,0-1.822.1c-.012-1.231-.11-2.293-.122-3.3m-5.223.563a2.4,2.4,0,0,1-1.854-.886,3.937,3.937,0,0,1-.816-2.917c.188-1.988,1.64-3.6,3.239-3.6,1.508,0,2.69,1.48,2.69,3.371,0,2.188-1.492,4.035-3.258,4.035m.47,8.917c-1.946.908-3.054.089-3.16-.693-.177-1.3.69-2.212,3.241-2.744a11.484,11.484,0,0,1,2.663-.312,4.841,4.841,0,0,1-2.744,3.75" transform="translate(-737.921 -609.68)" fill="#e85400"/>
            <path id="Path_46192" data-name="Path 46192" d="M739.133,608.879h-2.894a12.35,12.35,0,0,1-6.711,7.879l.231-7.879h-3.89l-.022,1.331h.519c.15,0,1.122.023,1.055,1.334l-.457,14.411h2.295l.206-6.837,6.391,6.837H738.9l-7.471-8.094a15.159,15.159,0,0,0,7.7-8.981" transform="translate(-725.847 -608.879)" fill="#e85400"/>
            <path id="Path_46193" data-name="Path 46193" d="M824.367,622.247c-.655-1.8-.23-5.663-.23-5.663h-2.309c-.172,2.582-.152,3.948-1.305,6.287-.98,1.99-2.379,2.264-3.672,1.852a1.6,1.6,0,0,1-.936-1.666,49.181,49.181,0,0,1,.339-5.616,5.785,5.785,0,0,0-4.322-3.129l-.032,0a4.211,4.211,0,0,0-.639-.05h-.011a2.089,2.089,0,0,0-.7.059,6.107,6.107,0,0,0-4.7,5.637c-.323,3.424,1.837,6.361,4.843,6.361a4.627,4.627,0,0,0,3.169-1.278c.933,1.373,3.045,1.278,3.045,1.278,4.792,0,5.314-5.613,5.314-5.613-.792,7.19,6.27,5.946,8.843,3.41v-1.759c-2.71,1.771-5.809,2.334-6.695-.109m-1.327-7.3a1.719,1.719,0,1,0-1.613-1.716,1.667,1.667,0,0,0,1.613,1.716m-12.349,9.044a2.392,2.392,0,0,1-1.854-.887,3.931,3.931,0,0,1-.815-2.916c.187-1.988,1.639-3.6,3.238-3.6,1.508,0,2.69,1.481,2.69,3.372,0,2.188-1.492,4.036-3.258,4.036" transform="translate(-741.016 -609.242)" fill="#e85400"/>
          </g>
          <g id="Group_10866" data-name="Group 10866" transform="translate(95.844 3.31)">
            <path id="Path_46194" data-name="Path 46194" d="M852.7,614.8v2.066a4.406,4.406,0,0,0-2.943-1.266,3.64,3.64,0,0,0-2.822,1.281,4.47,4.47,0,0,0-1.154,3.115,4.359,4.359,0,0,0,1.154,3.07,3.7,3.7,0,0,0,2.829,1.251,3.3,3.3,0,0,0,1.471-.3,4.175,4.175,0,0,0,.7-.405A8.146,8.146,0,0,0,852.7,623v2.1a5.656,5.656,0,0,1-2.957.846,5.29,5.29,0,0,1-3.975-1.73,5.92,5.92,0,0,1-1.64-4.207,6.168,6.168,0,0,1,1.372-3.94,5.408,5.408,0,0,1,7.2-1.273Z" transform="translate(-844.127 -612.888)" fill="#e85400"/>
            <path id="Path_46195" data-name="Path 46195" d="M861.7,619.13h1.591v7.294H861.7v-.764a2.918,2.918,0,0,1-4.454-.119,4.23,4.23,0,0,1-.922-2.787,4.1,4.1,0,0,1,.922-2.733,2.9,2.9,0,0,1,2.308-1.093,2.841,2.841,0,0,1,2.147,1.048Zm-3.758,3.624a2.655,2.655,0,0,0,.528,1.708,1.69,1.69,0,0,0,1.366.666,1.768,1.768,0,0,0,1.421-.643,2.913,2.913,0,0,0,0-3.385,1.746,1.746,0,0,0-1.408-.652,1.708,1.708,0,0,0-1.365.66A2.526,2.526,0,0,0,857.944,622.754Z" transform="translate(-846.441 -613.573)" fill="#e85400"/>
            <path id="Path_46196" data-name="Path 46196" d="M867.23,619.13h1.583v.652a3.044,3.044,0,0,1,.774-.666,1.687,1.687,0,0,1,.817-.187,2.451,2.451,0,0,1,1.308.434l-.724,1.543a1.455,1.455,0,0,0-.88-.346q-1.3,0-1.295,2.082v3.782H867.23Z" transform="translate(-848.509 -613.573)" fill="#e85400"/>
            <path id="Path_46197" data-name="Path 46197" d="M875.736,614.212v9.922h3.2v1.64H874.1V614.212Z" transform="translate(-849.812 -612.924)" fill="#e85400"/>
            <path id="Path_46198" data-name="Path 46198" d="M881.153,615.471a1.079,1.079,0,0,1,.3-.764.985.985,0,0,1,1.457,0,1.069,1.069,0,0,1,.3.771,1.1,1.1,0,0,1-.3.779.947.947,0,0,1-.725.322.968.968,0,0,1-.732-.322A1.107,1.107,0,0,1,881.153,615.471Zm1.823,3.032V625.8h-1.583V618.5Z" transform="translate(-851.15 -612.948)" fill="#e85400"/>
            <path id="Path_46199" data-name="Path 46199" d="M887.238,619.846v5.722h-1.591v-5.722h-.562v-1.572h.562v-2.816a3.2,3.2,0,0,1,.451-1.946,2.144,2.144,0,0,1,1.8-.794,2.951,2.951,0,0,1,1.063.261V614.7l-.162-.09a1.9,1.9,0,0,0-.844-.277.566.566,0,0,0-.571.321,3.28,3.28,0,0,0-.147,1.213v2.4h1.724v1.572Z" transform="translate(-851.897 -612.718)" fill="#e85400"/>
            <path id="Path_46200" data-name="Path 46200" d="M897,623.174h-4.912a2.292,2.292,0,0,0,.549,1.43,1.624,1.624,0,0,0,1.247.523,1.547,1.547,0,0,0,.978-.3,4.18,4.18,0,0,0,.865-1.109l1.337.794a5.6,5.6,0,0,1-.655.962,3.542,3.542,0,0,1-.739.659,2.881,2.881,0,0,1-.852.379,3.962,3.962,0,0,1-.992.119,3.127,3.127,0,0,1-2.463-1.049,4.082,4.082,0,0,1-.929-2.8,4.2,4.2,0,0,1,.9-2.8,3.02,3.02,0,0,1,2.407-1.055,2.987,2.987,0,0,1,2.392,1.026,4.2,4.2,0,0,1,.872,2.824Zm-1.626-1.378a1.541,1.541,0,0,0-1.6-1.349,1.563,1.563,0,0,0-.542.094,1.538,1.538,0,0,0-.46.269,1.67,1.67,0,0,0-.356.424,2.023,2.023,0,0,0-.225.562Z" transform="translate(-852.912 -613.573)" fill="#e85400"/>
          </g>
        </g>
      </g>
    </g>
  </g>
</svg>
