<svg xmlns="http://www.w3.org/2000/svg" width="50" height="36" viewBox="0 0 50 36">
  <g id="Group_11673" data-name="Group 11673" transform="translate(-154 -292)">
    <g id="ガソリンスタンドアイコン2" transform="translate(144.744 292)">
      <path id="Path_47657" data-name="Path 47657" d="M50.677,11.152c-.506-.6-.841-.944-1.445-1.571C47.293,7.572,45.54,5.8,45.538,5.793l-.874-.886-1.21,1.2,2.5,3.848.026.054a.68.68,0,0,1,.026.2,1.48,1.48,0,0,1-.172.655l-.22.41a5.437,5.437,0,0,0-.4,2.009,3.229,3.229,0,0,0,.355,1.475l.433.846a3.156,3.156,0,0,0,2.567,1.712l.208.066V26.3a2.215,2.215,0,0,1-.478,1.521,1.115,1.115,0,0,1-.827.4.927.927,0,0,1-.723-.348,2.356,2.356,0,0,1-.444-1.57V21.6a4.183,4.183,0,0,0-.281-1.475,4.5,4.5,0,0,0-1.412-1.939,4.134,4.134,0,0,0-2.584-.882c-.118,0-.238.007-.358.016V3.372A3.35,3.35,0,0,0,38.349,0h-14.6a3.35,3.35,0,0,0-3.328,3.372V31.93H18.256V36H43.84V31.93H41.677V19.84a2.508,2.508,0,0,1,.358-.032,1.73,1.73,0,0,1,.77.169,1.826,1.826,0,0,1,.765.728,1.856,1.856,0,0,1,.269.9v4.7a4.843,4.843,0,0,0,1.05,3.213,3.4,3.4,0,0,0,2.589,1.21A3.58,3.58,0,0,0,50.137,29.5a4.724,4.724,0,0,0,1.119-3.2V13.226A2.565,2.565,0,0,0,50.677,11.152ZM36.733,15.965H25.363V5.009H36.733V15.965Zm12.051-1.058a.251.251,0,0,1-.27.287,1.138,1.138,0,0,1-.966-.4,2.763,2.763,0,0,1-.32-2.655.251.251,0,0,1,.4-.1l.7.654a1.428,1.428,0,0,1,.456,1.047S48.784,14.709,48.784,14.907Z" fill="#e85400"/>
    </g>
    <rect id="Rectangle_23683" data-name="Rectangle 23683" width="50" height="36" transform="translate(154 292)" fill="none"/>
  </g>
</svg>
