<svg id="車アイコン" xmlns="http://www.w3.org/2000/svg" width="50" height="25" viewBox="0 0 50 25">
  <path id="Path_46614" data-name="Path 46614" d="M48.86,136.282l-3.323-5.292a6.138,6.138,0,0,0-5.2-2.874H24.868a9.686,9.686,0,0,0-6.919,2.907l-4.416,4.507L3,137.97a3.881,3.881,0,0,0-3,3.781v4.139a1.617,1.617,0,0,0,1.615,1.617h5.6c-.007.112-.018.222-.018.335a5.27,5.27,0,1,0,10.541,0c0-.113-.011-.223-.018-.335H34.288c-.007.112-.018.222-.018.335a5.269,5.269,0,1,0,10.539,0c0-.113-.009-.223-.016-.335h3.593A1.617,1.617,0,0,0,50,145.891V140.24A7.442,7.442,0,0,0,48.86,136.282ZM12.467,149.944a2.1,2.1,0,1,1,2.1-2.1A2.1,2.1,0,0,1,12.467,149.944Zm13.327-13.262H16.3l3.633-3.707a6.946,6.946,0,0,1,4.932-2.072h.926v5.779Zm10.827,0H28.228V130.9h8.393Zm2.918,13.262a2.1,2.1,0,1,1,2.1-2.1A2.1,2.1,0,0,1,39.539,149.944Zm-.482-13.262V130.9H40.34a3.332,3.332,0,0,1,2.839,1.57l2.643,4.209Z" transform="translate(0 -128.116)" fill="#e85400"/>
</svg>
