<svg id="Group_11467" data-name="Group 11467" xmlns="http://www.w3.org/2000/svg" width="36.588" height="33.844" viewBox="0 0 36.588 33.844">
  <path id="Path_46615" data-name="Path 46615" d="M233.224,375.785l-1.432-1.055-1.728-5.517a1.78,1.78,0,0,0-.654-.918,1.762,1.762,0,0,0-1.068-.352H215.877a1.762,1.762,0,0,0-1.068.352,1.78,1.78,0,0,0-.654.919l-1.728,5.517-1.432,1.055a1.821,1.821,0,0,0-.748,1.468v5.4a1.813,1.813,0,0,0,1.805,1.816h.734V386a.771.771,0,0,0,.767.771h1.982A.771.771,0,0,0,216.3,386v-1.535h11.614V386a.771.771,0,0,0,.767.771h1.982a.771.771,0,0,0,.767-.771v-1.535h.734a1.813,1.813,0,0,0,1.805-1.816v-5.4A1.821,1.821,0,0,0,233.224,375.785Zm-18.357-2.051.8-3.417a1.271,1.271,0,0,1,1.175-.935h10.529a1.271,1.271,0,0,1,1.175.935l.8,3.417a.726.726,0,0,1-.736.935H215.6A.726.726,0,0,1,214.867,373.734Zm-.56,7.725a1.794,1.794,0,1,1,1.783-1.793A1.788,1.788,0,0,1,214.307,381.459Zm10.105,1.474h-4.607v-1.769h4.607Zm5.5-1.474a1.794,1.794,0,1,1,1.784-1.793A1.788,1.788,0,0,1,229.911,381.459Z" transform="translate(-204.178 -352.932)" fill="#fff"/>
  <g id="Group_10930" data-name="Group 10930" transform="translate(0 14.255)">
    <path id="Path_46616" data-name="Path 46616" d="M120.142,365.825a3.582,3.582,0,1,1,3.582-3.582A3.586,3.586,0,0,1,120.142,365.825Zm0-5.962a2.38,2.38,0,1,0,2.38,2.379A2.382,2.382,0,0,0,120.142,359.863Z" transform="translate(-116.56 -358.66)" fill="#fff"/>
  </g>
  <g id="Group_10931" data-name="Group 10931" transform="translate(1.804 16.05)">
    <path id="Path_46617" data-name="Path 46617" d="M144.725,388.7a.318.318,0,0,1-.318-.318,1.872,1.872,0,0,1,1.87-1.87.318.318,0,1,1,0,.637,1.235,1.235,0,0,0-1.233,1.233A.318.318,0,0,1,144.725,388.7Z" transform="translate(-144.407 -386.507)" fill="#fff"/>
  </g>
  <g id="Group_10932" data-name="Group 10932" transform="translate(10.977 6.732)">
    <path id="Path_46618" data-name="Path 46618" d="M289.81,250.122a3.048,3.048,0,1,1,3.048-3.048A3.051,3.051,0,0,1,289.81,250.122Zm0-4.892a1.845,1.845,0,1,0,1.845,1.845A1.847,1.847,0,0,0,289.81,245.23Z" transform="translate(-286.762 -244.027)" fill="#fff"/>
  </g>
  <g id="Group_10933" data-name="Group 10933" transform="translate(12.643 8.405)">
    <path id="Path_46619" data-name="Path 46619" d="M312.775,271.606a.292.292,0,0,1-.292-.292,1.567,1.567,0,0,1,1.565-1.565.292.292,0,0,1,0,.583.983.983,0,0,0-.982.982A.292.292,0,0,1,312.775,271.606Z" transform="translate(-312.483 -269.749)" fill="#fff"/>
  </g>
  <g id="Group_10934" data-name="Group 10934" transform="translate(15.457 0)">
    <path id="Path_46620" data-name="Path 46620" d="M359.266,147.451a3.048,3.048,0,1,1,3.048-3.048A3.051,3.051,0,0,1,359.266,147.451Zm0-4.892a1.845,1.845,0,1,0,1.845,1.845A1.847,1.847,0,0,0,359.266,142.559Z" transform="translate(-356.218 -141.356)" fill="#fff"/>
  </g>
  <g id="Group_10935" data-name="Group 10935" transform="translate(17.189 1.731)">
    <path id="Path_46621" data-name="Path 46621" d="M383.261,169.992a.318.318,0,0,1-.318-.318,1.594,1.594,0,0,1,1.592-1.592.318.318,0,1,1,0,.637.956.956,0,0,0-.955.955A.318.318,0,0,1,383.261,169.992Z" transform="translate(-382.943 -168.082)" fill="#fff"/>
  </g>
  <g id="Group_10936" data-name="Group 10936" transform="translate(4.379 2.411)">
    <path id="Path_46622" data-name="Path 46622" d="M186.625,183.509a2.469,2.469,0,1,1,2.469-2.469A2.471,2.471,0,0,1,186.625,183.509Zm0-3.735a1.266,1.266,0,1,0,1.266,1.266A1.267,1.267,0,0,0,186.625,179.775Z" transform="translate(-184.156 -178.572)" fill="#fff"/>
  </g>
  <g id="Group_10937" data-name="Group 10937" transform="translate(27.923 11.09)">
    <path id="Path_46623" data-name="Path 46623" d="M554.021,318.955a4.332,4.332,0,1,1,4.332-4.332A4.337,4.337,0,0,1,554.021,318.955Zm0-7.332a3,3,0,1,0,3,3A3,3,0,0,0,554.021,311.622Z" transform="translate(-549.689 -310.29)" fill="#fff"/>
  </g>
  <g id="Group_10938" data-name="Group 10938" transform="translate(30.029 13.19)">
    <path id="Path_46624" data-name="Path 46624" d="M582.509,345.336a.318.318,0,0,1-.318-.318,2.229,2.229,0,0,1,2.227-2.227.318.318,0,1,1,0,.637,1.592,1.592,0,0,0-1.59,1.59A.318.318,0,0,1,582.509,345.336Z" transform="translate(-582.191 -342.791)" fill="#fff"/>
  </g>
  <g id="Group_10939" data-name="Group 10939" transform="translate(21.94 5.605)">
    <path id="Path_46625" data-name="Path 46625" d="M459.614,232.625a2.887,2.887,0,1,1,2.887-2.887A2.89,2.89,0,0,1,459.614,232.625Zm0-4.571a1.684,1.684,0,1,0,1.684,1.684A1.686,1.686,0,0,0,459.614,228.054Z" transform="translate(-456.727 -226.851)" fill="#fff"/>
  </g>
</svg>
