<svg id="キラキラ_2" data-name="キラキラ 2" xmlns="http://www.w3.org/2000/svg" width="26.485" height="31.486" viewBox="0 0 26.485 31.486">
  <path id="Path_88823" data-name="Path 88823" d="M53.376,6.574A13.876,13.876,0,0,1,50.307,0a13.88,13.88,0,0,1-3.069,6.575,13.89,13.89,0,0,1-6.574,3.069,13.866,13.866,0,0,1,6.574,3.068,13.882,13.882,0,0,1,3.069,6.574,13.879,13.879,0,0,1,3.068-6.575A13.885,13.885,0,0,1,59.95,9.642,13.876,13.876,0,0,1,53.376,6.574Z" transform="translate(-40.665)" fill="#fff"/>
  <path id="Path_88824" data-name="Path 88824" d="M291.586,244.4a8.294,8.294,0,0,1-1.833-3.927,6.342,6.342,0,0,1-5.76,5.761A6.344,6.344,0,0,1,289.753,252a6.343,6.343,0,0,1,5.76-5.762A8.3,8.3,0,0,1,291.586,244.4Z" transform="translate(-269.028 -225.687)" fill="#fff"/>
  <path id="Path_88825" data-name="Path 88825" d="M72.556,354.7a6.964,6.964,0,0,1-1.539,3.3,6.968,6.968,0,0,1-3.3,1.539,6.965,6.965,0,0,1,3.3,1.539,6.961,6.961,0,0,1,1.54,3.3,6.96,6.96,0,0,1,1.539-3.3,6.967,6.967,0,0,1,3.3-1.54A6.959,6.959,0,0,1,74.1,358,6.961,6.961,0,0,1,72.556,354.7Z" transform="translate(-66.056 -332.889)" fill="#fff"/>
</svg>
