<svg id="g6475" xmlns="http://www.w3.org/2000/svg" width="29.715" height="28.151" viewBox="0 0 29.715 28.151">
  <path id="path8664" d="M51.193,322.289a5.815,5.815,0,0,0-.584.025,5.7,5.7,0,0,0-5.235,4.933,4.993,4.993,0,0,1-1.607,3.779l-6.526,6.38c-1.573,1.669-1.463,2-3.458,1.644a5.685,5.685,0,0,0-6.38,4.883c-.054.734.336.857.877.614l3.312-1.521,1.972,1.374-.024,2.552L30.057,348.6c-.759.335-.366.476,0,.834a5.876,5.876,0,0,0,2.338.81,5.7,5.7,0,0,0,6.38-4.908,6.1,6.1,0,0,1,1.972-4.123l6.818-6.7a4.291,4.291,0,0,1,2.776-.957,5.683,5.683,0,0,0,6.4-4.908c.026-.266-.076-.722-.536-.515l-3.653,1.644-1.972-1.62.268-2.675,3.214-1.5c.541-.3.408-.466.073-.785a5.752,5.752,0,0,0-2.362-.859c-.2-.024-.387-.044-.584-.049Z" transform="translate(-27.034 -322.133)" fill="#fff"/>
  <path id="path10796-6" d="M48.6,340.7l-2.409,2.36,6.1,5.777.86,2.114,3.958,1.967,1.524-1.45-1.967-3.982-2.163-.86L48.6,340.7Z" transform="translate(-29.973 -324.788)" fill="#fff"/>
  <path id="path13960" d="M31.9,322.111c-2.863.13-6.44,4.4-4.255,6.534l7.056,6.956a3,3,0,0,0,1.6.76c.1-.106.062-.082.177-.2l.051-.051,5.04-4.837a3.014,3.014,0,0,0-.836-1.6l-7.056-6.905a2.291,2.291,0,0,0-1.773-.659h0Z" transform="translate(-26.975 -322.108)" fill="#fff"/>
</svg>
