<svg id="タイヤのアイコン" xmlns="http://www.w3.org/2000/svg" width="31.68" height="31.68" viewBox="0 0 31.68 31.68">
  <path id="Path_46626" data-name="Path 46626" d="M15.841,0a15.84,15.84,0,1,0,15.84,15.84A15.84,15.84,0,0,0,15.841,0Zm0,25.937a10.1,10.1,0,1,1,10.1-10.1A10.1,10.1,0,0,1,15.841,25.937Z" transform="translate(-0.001)" fill="#fff"/>
  <path id="Path_46627" data-name="Path 46627" d="M241.276,242.331a1.056,1.056,0,1,0-1.056-1.055A1.055,1.055,0,0,0,241.276,242.331Z" transform="translate(-225.436 -225.436)" fill="#fff"/>
  <path id="Path_46628" data-name="Path 46628" d="M150.131,139.459a.692.692,0,0,0,.435.416l3.762,1.223A1.151,1.151,0,0,0,155.834,140v-3.953a.693.693,0,0,0-.849-.673s.056-.042-.324.077a8.383,8.383,0,0,0-4.341,3.188c-.215.307-.132.219-.132.219A.7.7,0,0,0,150.131,139.459Z" transform="translate(-140.953 -127.122)" fill="#fff"/>
  <path id="Path_46629" data-name="Path 46629" d="M136.437,242.447a1.146,1.146,0,0,0-.739-.739l-3.76-1.222a.69.69,0,0,0-.9.6s-.023-.067-.027.332a8.382,8.382,0,0,0,1.691,5.114c.225.3.166.193.166.193a.691.691,0,0,0,1.081-.046l2.326-3.2A1.151,1.151,0,0,0,136.437,242.447Z" transform="translate(-123.029 -225.858)" fill="#fff"/>
  <path id="Path_46630" data-name="Path 46630" d="M209.7,302.6a1.151,1.151,0,0,0-1.862,0l-2.324,3.2a.692.692,0,0,0,.293,1.043s-.071,0,.307.129a8.375,8.375,0,0,0,5.385-.028c.354-.122.235-.1.235-.1a.69.69,0,0,0,.29-1.042Z" transform="translate(-192.93 -283.704)" fill="#fff"/>
  <path id="Path_46631" data-name="Path 46631" d="M303.58,240.466l-3.763,1.223a1.15,1.15,0,0,0-.575,1.769l2.323,3.2a.69.69,0,0,0,1.082.045s-.02.067.217-.253a8.383,8.383,0,0,0,1.639-5.131c-.006-.374-.022-.254-.022-.254a.69.69,0,0,0-.9-.6Z" transform="translate(-280.806 -225.838)" fill="#fff"/>
  <path id="Path_46632" data-name="Path 46632" d="M276.487,140.891a1.156,1.156,0,0,0,1.032.164l3.759-1.223a.689.689,0,0,0,.377-1.014s.058.04-.173-.284a8.378,8.378,0,0,0-4.373-3.144c-.358-.109-.249-.058-.249-.058a.693.693,0,0,0-.848.672v3.957A1.155,1.155,0,0,0,276.487,140.891Z" transform="translate(-259.213 -127.078)" fill="#fff"/>
</svg>
