<svg id="g6445" xmlns="http://www.w3.org/2000/svg" width="63.222" height="30.84" viewBox="0 0 63.222 30.84">
  <path id="rect5501" d="M179.353,253.634a1.109,1.109,0,0,0-1,.7l-.866,2.232,8.462,3.365.9-2.265a1.062,1.062,0,0,0-.6-1.4l-6.463-2.565a1.107,1.107,0,0,0-.433-.067Z" transform="translate(-162.918 -253.633)" fill="#fff"/>
  <path id="path6575" d="M174.6,256.164c-.839.116-1.385.8-2.059,2.044l-6.986,12.9c-.472,1.229-.947,2.48-.4,3.72a4.7,4.7,0,0,0,2.7,2.447l16.808,6a11.832,11.832,0,0,0,11.846-1.743c3.122-2.686,14.141-11.7,14.141-11.7,2.145-2.092,6.835-2.9,9.18-.168,1.05,1.226,3.331.961,4.624-.235a.934.934,0,0,0,.135-.972c-1.115-2.018-5.406-3.135-6.784-3.284-11.953-1.3-17.253,1.815-25.481,4.256l-.574-5.7a3.362,3.362,0,0,0-1.924-1.944l-13.331-5.262a4.037,4.037,0,0,0-1.89-.369Zm2.1,3.669a1.585,1.585,0,0,1,.574.1l1.06.464a1.274,1.274,0,0,1,.742,1.743l-1.311,3.251a1.509,1.509,0,0,1-1.89.737l-1.619-.7a1.225,1.225,0,0,1-.709-1.709l1.8-3.014a1.554,1.554,0,0,1,1.35-.871Z" transform="translate(-164.909 -253.277)" fill="#fff"/>
  <path id="path5260" d="M216.893,270.358a3.947,3.947,0,0,1-.36,2.944,13.261,13.261,0,0,1-1.292,1.682,5.216,5.216,0,0,0-.6.9,2.473,2.473,0,0,0-.27.991,2.669,2.669,0,0,0,.511,1.652,2.981,2.981,0,0,0,1.5,1.112,3.107,3.107,0,0,0,3.665-1.652,3.533,3.533,0,0,0,.3-1.652,5.86,5.86,0,0,0-.36-1.622,9.462,9.462,0,0,0-3.094-4.356Z" transform="translate(-157.131 -251.097)" fill="#fff"/>
</svg>
