<svg xmlns="http://www.w3.org/2000/svg" width="50" height="36" viewBox="0 0 50 36">
  <g id="Group_11680" data-name="Group 11680" transform="translate(-154 -365)">
    <g id="Group_11675" data-name="Group 11675" transform="translate(0 73)">
      <rect id="Rectangle_23683" data-name="Rectangle 23683" width="50" height="36" transform="translate(154 292)" fill="none"/>
    </g>
    <g id="はてなのアイコン" transform="translate(161 365)">
      <path id="Path_90215" data-name="Path 90215" d="M30.728,5.272A18,18,0,1,0,36,18,17.952,17.952,0,0,0,30.728,5.272Zm-2.64,2.64A14.266,14.266,0,1,1,18,3.733,14.214,14.214,0,0,1,28.088,7.912Z" transform="translate(0 0)" fill="#e85400"/>
      <path id="Path_90216" data-name="Path 90216" d="M218.778,329.326a1.758,1.758,0,1,0,1.758,1.759A1.759,1.759,0,0,0,218.778,329.326Z" transform="translate(-201.713 -306.098)" fill="#e85400"/>
      <path id="Path_90217" data-name="Path 90217" d="M181.058,134.147l1.2.96a.647.647,0,0,0,.828-.017,1.626,1.626,0,0,1,.608-.529,3.841,3.841,0,0,1,1.962-.476,2.98,2.98,0,0,1,1.933.69,2.169,2.169,0,0,1,.511.623,1.136,1.136,0,0,1,.145.519,2.148,2.148,0,0,1-.22,1.014,2.049,2.049,0,0,1-.391.525,4.387,4.387,0,0,1-.954.683c-.375.211-.779.4-1.187.622a3.674,3.674,0,0,0-1.322,1.184,3.206,3.206,0,0,0-.414.921,3.912,3.912,0,0,0-.132,1.036v.69a.647.647,0,0,0,.647.647h1.558a.647.647,0,0,0,.646-.647v-.69a1.062,1.062,0,0,1,.031-.281.344.344,0,0,1,.083-.156,1.1,1.1,0,0,1,.29-.211c.234-.131.609-.308,1.035-.539a6.883,6.883,0,0,0,2.065-1.6,4.767,4.767,0,0,0,.811-1.4,5.17,5.17,0,0,0,.307-1.8,3.974,3.974,0,0,0-.47-1.841,5.2,5.2,0,0,0-1.977-2.034,5.888,5.888,0,0,0-2.993-.808,6.705,6.705,0,0,0-3.377.851,3.774,3.774,0,0,0-1.238,1.068.647.647,0,0,0,.018.994Z" transform="translate(-167.955 -121.873)" fill="#e85400"/>
    </g>
  </g>
</svg>
