<svg xmlns="http://www.w3.org/2000/svg" width="510.937" height="107.836" viewBox="0 0 510.937 107.836">
  <path id="Path_90225" data-name="Path 90225" d="M.112,13.965c.5-4.634,1.7-7.306,4.168-9.571C6.841,2.046,8.5.836,9.694.409,11.043-.075,13.933-.516,13.6,1.5s-5.267.908-9.265,5.934c-2.791,3.509-3,13.421,3.492,20.9,5.391,6.215,13.016,10.024,21.207,12.677,1.711.325,3.42.659,5.123,1.015.92.192,3.276.389,3.161,1.741-.093,1.09-1.737.987-2.557.976a8.6,8.6,0,0,1-2.383-.4c-3.552,2.52-4.988,8.674-2.116,12.509,3.967,5.3,11.592,6.633,18.443,7.35,17.633,1.847,35.382,2.46,53.112,3.071L230.3,71.7c17.693.61,36.663,1.649,51.06,10.988-3.4-3.911-1.914-11.382,2.9-14.644,5.8-3.932,13.617-3.535,20.746-2.97L450.712,76.625c11.891.942,23.913,1.881,35.711.2,5.515-.787,11.225-2.3,15.129-6.039,5.657-5.427,5.963-14.313,2.9-21.341-.653-1.5-4.062-7.658-6.628-10.027s-6.878-4.775-8.959-6.863c-1.261-1.266-.022-2.08.7-2.084,4.828-.025,8.23,5.213,10.132,7.681a40.608,40.608,0,0,1,5.912,9.234c3,6.861,3.86,17.107-.614,23.714-10.761,15.89-47.382,10.164-63.919,8.442q-71.56-7.45-143.447-11.648c-5.648-.33-12.58,0-15.182,4.718-2.457,4.456.471,9.7,5.136,12.192s11.261,3.032,9.075,4.926S284.2,86.845,279.4,83.9c-5.836-2.461-11.6-5.175-17.715-6.89-8.747-2.454-17.983-2.8-27.1-3.127-58.3-2.1-117.612-1.977-175.745-6.636-8.424-.675-17.646-.827-24.751-4.805S23.774,50.124,27.478,43.177c-9.7-4.36-20.022-9.252-25.159-18.13A18.4,18.4,0,0,1,.112,13.965ZM453.248,78.8c1.556.152,3.105.347,4.664.471,2.665.21,5.335.336,8.006.44l-3.745-.219c-.814-.05-1.628-.1-2.443-.146-.346-.018-.692-.031-1.035-.062l-4.015-.371-3.181-.293C452.083,78.674,452.665,78.741,453.248,78.8Zm-61.763-5.4c3.571.191,7.206.9,10.768,1.2,3.921.325,7.849.576,11.777.817,7.853.483,15.715.922,23.529,1.831a30.234,30.234,0,0,0,3.565.411c-3.632-.934-7.9-.91-11.649-1.308q-5.923-.629-11.854-1.191c-7.9-.737-15.826-1.34-23.762-1.673q-1.548-.065-3.1-.116C391,73.37,391.244,73.381,391.485,73.394Zm-58.362-4.746q5.993.605,12,1.1,4.631.382,9.268.7,2.259.154,4.519.293a21.984,21.984,0,0,0,4.507.21c-12.165-1.7-24.578-1.716-36.791-2.991Q329.871,68.319,333.123,68.647Z" transform="translate(0 17.732) rotate(-2)" fill="#fff"/>
</svg>
