<svg xmlns="http://www.w3.org/2000/svg" width="50" height="36" viewBox="0 0 50 36">
  <g id="Group_11676" data-name="Group 11676" transform="translate(-154 -365)">
    <g id="Group_11675" data-name="Group 11675" transform="translate(0 73)">
      <rect id="Rectangle_23683" data-name="Rectangle 23683" width="50" height="36" transform="translate(154 292)" fill="none"/>
    </g>
    <g id="誕生日プレゼントのアイコン" transform="translate(101.844 365)">
      <path id="Path_47682" data-name="Path 47682" d="M116.832,10.069a9.017,9.017,0,0,0,3.86-2.415A6.3,6.3,0,0,0,121.8,5.981a4.583,4.583,0,0,0,.413-1.857,3.823,3.823,0,0,0-.208-1.253,4.166,4.166,0,0,0-.667-1.223A4.269,4.269,0,0,0,119.781.421,4.58,4.58,0,0,0,117.855,0a4.7,4.7,0,0,0-1.474.237,4.9,4.9,0,0,0-2.013,1.283,6.171,6.171,0,0,0-1.379,2.386c-.409,1.26-1.635,4.118-1.669,4.188H111.2c-.034-.07-1.259-2.928-1.669-4.188a6.526,6.526,0,0,0-.83-1.709A5.152,5.152,0,0,0,106.859.54,4.711,4.711,0,0,0,104.671,0a4.536,4.536,0,0,0-2.5.743,4.2,4.2,0,0,0-.984.9,4.155,4.155,0,0,0-.667,1.223,3.81,3.81,0,0,0-.207,1.253,4.368,4.368,0,0,0,.189,1.253,5.807,5.807,0,0,0,1.109,2.015A8.536,8.536,0,0,0,104.733,9.7a11.059,11.059,0,0,0,4.5.921c.953,0,2,.008,2.032,0,.037.008,1.079,0,2.033,0A11.318,11.318,0,0,0,116.832,10.069Zm-1.4-6.756a3.177,3.177,0,0,1,1.143-1.035,2.774,2.774,0,0,1,1.283-.318,2.582,2.582,0,0,1,1.424.418,2.243,2.243,0,0,1,.529.484,2.216,2.216,0,0,1,.354.649,1.86,1.86,0,0,1,.1.611,2.4,2.4,0,0,1-.107.69,3.847,3.847,0,0,1-.742,1.329A6.6,6.6,0,0,1,117,7.906a9.1,9.1,0,0,1-3.7.752q-.114,0-.221,0a20.507,20.507,0,0,0,1.776-4.143A4.589,4.589,0,0,1,115.43,3.313ZM102.511,5.185a2.626,2.626,0,0,1-.245-1.061,1.84,1.84,0,0,1,.1-.611h0a2.19,2.19,0,0,1,.354-.649,2.3,2.3,0,0,1,.847-.662,2.631,2.631,0,0,1,1.1-.241,2.729,2.729,0,0,1,.861.14,2.944,2.944,0,0,1,1.211.777,4.2,4.2,0,0,1,.933,1.636,20.5,20.5,0,0,0,1.776,4.143l-.221,0a9.371,9.371,0,0,1-2.927-.453,7.081,7.081,0,0,1-3.025-1.874A4.318,4.318,0,0,1,102.511,5.185Z" transform="translate(-34.534)" fill="#e85400"/>
      <path id="Path_47683" data-name="Path 47683" d="M271.427,172.595v6.525h12.507v-6.525Z" transform="translate(-193.63 -160.466)" fill="#e85400"/>
      <path id="Path_47684" data-name="Path 47684" d="M63.156,176.88v2.24H75.663v-6.525H63.156Z" transform="translate(0 -160.466)" fill="#e85400"/>
      <rect id="Rectangle_23573" data-name="Rectangle 23573" width="12.507" height="15.226" transform="translate(77.797 20.774)" fill="#e85400"/>
      <rect id="Rectangle_23574" data-name="Rectangle 23574" width="12.507" height="15.226" transform="translate(63.156 20.774)" fill="#e85400"/>
    </g>
  </g>
</svg>
